# xmcd
# 
# Track frame offsets:
#     182
#     10240
#     20475
#     31535
#     41925
#     55070
#     67662
#     80737
#     93762
#     104567
#     115377
#     127022
#     138817
#     149332
# 
# Disc length: 2173
# 
# Revision: 2
# Processed by: cddbd v1.5.2PL0 Copyright (c) Steve Scherf et al.
# Submitted via: fre:ac v1.0.31
# 
DISCID=b7087b0e
DTITLE=Roots of Rhythm - Street Corner Harmony
DYEAR=1999
DGENRE=R&B
TTITLE0=The Crows - Gee
TTITLE1=The Marcels - Blue Moon
TTITLE2=The CLovers - Devil or Angel
TTITLE3=Little Anthony and the Imperials - Tears On My Pillow
TTITLE4=The Turbans - When You Dance
TTITLE5=The Silhouettes - Get A Job
TTITLE6=Shep and the LimeLites - Daddy's Home
TTITLE7=The Chantels - Maybe
TTITLE8=The Gladiolas - Little Darlin'
TTITLE9=Lee Andrews and the Hearts - Tear Drops
TTITLE10=The Jive Five - My True Story
TTITLE11=The El Dorados - At My Front Door (crazy little mama song)
TTITLE12=The Nutmegs - Story Untold
TTITLE13=The Orioles - Crying in the Chapel
EXTD=YEAR: 1999
EXTT0=\n
EXTT1=
EXTT2=
EXTT3=
EXTT4=
EXTT5=
EXTT6=
EXTT7=
EXTT8=
EXTT9=
EXTT10=
EXTT11=
EXTT12=
EXTT13=
PLAYORDER=
